HIERARCHY
ROOT hip
{
  OFFSET 0 0 0
  CHANNELS 6 Xposition Yposition Zposition Zrotation Yrotation Xrotation
  JOINT abdomen
  {
    OFFSET 0 20.6881 -0.73152
    CHANNELS 3 Zrotation Xrotation Yrotation
    JOINT chest
    {
      OFFSET 0 11.7043 -0.48768
      CHANNELS 3 Zrotation Xrotation Yrotation
      JOINT neck
      {
        OFFSET 0 22.1894 -2.19456
        CHANNELS 3 Zrotation Xrotation Yrotation
        JOINT head
        {
          OFFSET -0.24384 7.07133 1.2192
          CHANNELS 3 Zrotation Xrotation Yrotation
          JOINT leftEye
          {
            OFFSET 4.14528 8.04674 8.04672
            CHANNELS 3 Zrotation Xrotation Yrotation
            End Site
            {
              OFFSET 1 0 0
            }
          }
          JOINT rightEye
          {
            OFFSET -3.6576 8.04674 8.04672
            CHANNELS 3 Zrotation Xrotation Yrotation
            End Site
            {
              OFFSET 1 0 0
            }
          }
        }
      }
      JOINT rCollar
      {
        OFFSET -2.68224 19.2634 -4.8768
        CHANNELS 3 Zrotation Xrotation Yrotation
        JOINT rShldr
        {
          OFFSET -8.77824 -1.95073 1.46304
          CHANNELS 3 Zrotation Xrotation Yrotation
          JOINT rForeArm
          {
            OFFSET -28.1742 -1.7115 0.48768
            CHANNELS 3 Zrotation Xrotation Yrotation
            JOINT rHand
            {
              OFFSET -22.5879 0.773209 7.07136
              CHANNELS 3 Zrotation Xrotation Yrotation
              JOINT rThumb1
              {
                OFFSET -1.2192 -0.487915 3.41376
                CHANNELS 3 Zrotation Xrotation Yrotation
                JOINT rThumb2
                {
                  OFFSET -3.37035 -0.52449 3.41376
                  CHANNELS 3 Zrotation Xrotation Yrotation
                  End Site
                  {
                    OFFSET -1.78271 -1.18214 1.43049
                  }
                }
              }
              JOINT rIndex1
              {
                OFFSET -7.75947 0.938293 5.60832
                CHANNELS 3 Zrotation Xrotation Yrotation
                JOINT rIndex2
                {
                  OFFSET -2.54057 -0.884171 1.56538
                  CHANNELS 3 Zrotation Xrotation Yrotation
                  End Site
                  {
                    OFFSET -1.62519 -0.234802 1.16502
                  }
                }
              }
              JOINT rMid1
              {
                OFFSET -8.24714 1.18213 3.41376
                CHANNELS 3 Zrotation Xrotation Yrotation
                JOINT rMid2
                {
                  OFFSET -3.10165 -0.590103 1.0647
                  CHANNELS 3 Zrotation Xrotation Yrotation
                  End Site
                  {
                    OFFSET -2.48547 -0.328903 0.83742
                  }
                }
              }
              JOINT rRing1
              {
                OFFSET -8.82822 0.546677 1.51678
                CHANNELS 3 Zrotation Xrotation Yrotation
                JOINT rRing2
                {
                  OFFSET -2.60934 -0.819778 -0.0198488
                  CHANNELS 3 Zrotation Xrotation Yrotation
                  End Site
                  {
                    OFFSET -2.33842 -0.294052 0.168128
                  }
                }
              }
              JOINT rPinky1
              {
                OFFSET -8.27202 -0.0477905 -0.4584
                CHANNELS 3 Zrotation Xrotation Yrotation
                JOINT rPinky2
                {
                  OFFSET -1.82734 -0.647385 -0.700984
                  CHANNELS 3 Zrotation Xrotation Yrotation
                  End Site
                  {
                    OFFSET -1.69225 -0.51767 -0.607171
                  }
                }
              }
            }
          }
        }
      }
      JOINT lCollar
      {
        OFFSET 2.68224 19.2634 -4.8768
        CHANNELS 3 Zrotation Xrotation Yrotation
        JOINT lShldr
        {
          OFFSET 8.77824 -1.95073 1.46304
          CHANNELS 3 Zrotation Xrotation Yrotation
          JOINT lForeArm
          {
            OFFSET 28.1742 -1.7115 0.48768
            CHANNELS 3 Zrotation Xrotation Yrotation
            JOINT lHand
            {
              OFFSET 22.5879 0.773209 7.07136
              CHANNELS 3 Zrotation Xrotation Yrotation
              JOINT lThumb1
              {
                OFFSET 1.2192 -0.487915 3.41376
                CHANNELS 3 Zrotation Xrotation Yrotation
                JOINT lThumb2
                {
                  OFFSET 3.37035 -0.52449 3.41376
                  CHANNELS 3 Zrotation Xrotation Yrotation
                  End Site
                  {
                    OFFSET 1.78271 -1.18214 1.43049
                  }
                }
              }
              JOINT lIndex1
              {
                OFFSET 7.75947 0.938293 5.60832
                CHANNELS 3 Zrotation Xrotation Yrotation
                JOINT lIndex2
                {
                  OFFSET 2.54057 -0.884171 1.56538
                  CHANNELS 3 Zrotation Xrotation Yrotation
                  End Site
                  {
                    OFFSET 1.62519 -0.234802 1.16502
                  }
                }
              }
              JOINT lMid1
              {
                OFFSET 8.24714 1.18213 3.41376
                CHANNELS 3 Zrotation Xrotation Yrotation
                JOINT lMid2
                {
                  OFFSET 3.10165 -0.590103 1.0647
                  CHANNELS 3 Zrotation Xrotation Yrotation
                  End Site
                  {
                    OFFSET 2.48547 -0.328903 0.83742
                  }
                }
              }
              JOINT lRing1
              {
                OFFSET 8.82822 0.546677 1.51678
                CHANNELS 3 Zrotation Xrotation Yrotation
                JOINT lRing2
                {
                  OFFSET 2.60934 -0.819778 -0.0198488
                  CHANNELS 3 Zrotation Xrotation Yrotation
                  End Site
                  {
                    OFFSET 2.33842 -0.294052 0.168128
                  }
                }
              }
              JOINT lPinky1
              {
                OFFSET 8.27202 -0.0477905 -0.4584
                CHANNELS 3 Zrotation Xrotation Yrotation
                JOINT lPinky2
                {
                  OFFSET 1.82734 -0.647385 -0.700984
                  CHANNELS 3 Zrotation Xrotation Yrotation
                  End Site
                  {
                    OFFSET 1.69225 -0.51767 -0.607171
                  }
                }
              }
            }
          }
        }
      }
    }
  }
  JOINT rButtock
  {
    OFFSET -8.77824 4.35084 1.2192
    CHANNELS 3 Zrotation Xrotation Yrotation
    JOINT rThigh
    {
      OFFSET 0 -1.70687 -2.19456
      CHANNELS 3 Zrotation Xrotation Yrotation
      JOINT rShin
      {
        OFFSET 0 -36.8199 0.73152
        CHANNELS 3 Zrotation Xrotation Yrotation
        JOINT rFoot
        {
          OFFSET 0.73152 -45.1104 -5.12064
          CHANNELS 3 Zrotation Xrotation Yrotation
          End Site
          {
            OFFSET -1.1221 -3.69964 12.103
          }
        }
      }
    }
  }
  JOINT lButtock
  {
    OFFSET 8.77824 4.35084 1.2192
    CHANNELS 3 Zrotation Xrotation Yrotation
    JOINT lThigh
    {
      OFFSET 0 -1.70687 -2.19456
      CHANNELS 3 Zrotation Xrotation Yrotation
      JOINT lShin
      {
        OFFSET 0 -36.8199 0.73152
        CHANNELS 3 Zrotation Xrotation Yrotation
        JOINT lFoot
        {
          OFFSET -0.73152 -45.1104 -5.12064
          CHANNELS 3 Zrotation Xrotation Yrotation
          End Site
          {
            OFFSET 1.1221 -3.69964 12.103
          }
        }
      }
    }
  }
}
MOTION
Frames:	5
Frame Time:	0.03333
14.738999999999999 69.958 68.3969 175.604887 -40.450589 177.715995 -11.755185 9.812604 -180.0 -8.093705 5.287513 175.766079 -9.695349 16.36493 -10.481894 10.154357 -21.639433 -29.176048 -0.004248 -0.0 0.000264 -0.004248 -0.0 0.000264 -155.417835 -2.951505 161.718187 -159.577359 -6.639469 -145.8419 -175.61149 72.619907 130.77334 108.62664 -58.920384 108.123019 -19.688415 17.543618 5.975839 -135.63792 -37.144904 107.089902 -108.428906 34.161538 91.742765 30.146419 -39.127607 -3.567787 -111.80505 56.305862 102.277997 80.871336 -77.760897 52.227098 0.005716 1.772403 0.556241 -156.695612 -39.066233 176.513088 -144.111014 8.782086 -140.873475 -148.304685 14.102337 -142.244603 146.666464 31.659202 -151.371884 106.011894 4.081253 -84.936295 173.189389 31.652264 78.182912 22.347828 -61.753484 20.789031 -175.881109 -21.257912 -88.493227 -124.639564 -66.702574 -94.882265 160.01517 -33.011816 -122.698559 155.632202 -7.094002 -119.22 0.569138 1.648602 -0.322875 16.147842 40.137937 -12.899264 0.013546 -1.323066 0.416461 -9.292876 13.176137 -1.730334 144.782253 10.846122 141.477181 9.558912 -23.326803 12.085704 1e-06 0.000801 -1e-06 -41.081838 -49.488911 -180.0 -32.212515 -55.20744 29.053831 -33.277571 74.908086 112.764261 -7.3e-05 -0.000703 9.4e-05 6.801113 -4.25422 30.843353 37.351462 58.182767 -169.758189 147.519887 -13.840422 174.65611
15.911 67.5671 64.1934 173.871987 -34.242536 177.624018 -13.475318 19.073058 3.938255 6.297536 -10.481088 -0.54331 5.845191 25.252436 98.424199 -35.158085 16.371968 -134.605126 -0.00046 0.0 -0.001004 -0.000357 0.0 -0.000591 -142.974219 39.431758 147.390275 167.982149 -1.74338 -157.191759 -1.107457 0.737386 20.128815 -7.293085 52.289342 7.359357 -171.65461 -9.335862 89.949043 178.623125 -17.491002 94.748504 -162.919647 -37.929541 122.628217 -61.047534 57.228825 46.9923 -160.673801 -6.667767 143.245074 -25.588209 49.017412 21.192385 -0.015926 -1.323236 -0.4153 11.218216 -13.788474 -1.716814 9.030324 28.890672 7.894353 1.113849 -2.227453 -0.84285 -3.276132 -26.848217 5.258341 -78.339944 15.268155 61.603069 115.652479 -34.706357 -70.326606 165.538092 -20.143448 -152.640419 166.744561 -4.418781 -89.779715 -5.059266 -53.982629 -13.024673 -10.747681 -19.047978 4.722466 106.523207 41.227497 -85.531325 -23.903202 -61.333943 -1.398725 5.169791 21.272511 -4.52233 73.162348 -72.14291 90.197941 79.221752 83.19774 -97.069068 126.799937 -26.620178 124.512735 146.586486 11.057493 141.850989 179.985874 75.749024 0.012464 154.9981 11.593254 -0.0 -15.625279 59.130872 37.986024 -57.649814 6.8931 20.926345 -179.999911 75.750125 -6.1e-05 -150.281331 72.703328 -180.0 -24.309769 -61.15203 52.034051 58.586641 -3.885559 128.019278
18.4593 67.8598 61.9328 178.111947 -40.621112 179.484049 -7.666289 18.630465 22.848187 -0.312233 -11.121103 -20.696829 -8.279332 11.521193 -17.878587 12.703814 -20.069883 12.027979 -0.00441 0.0 -0.000963 0.001277 -0.0 -0.00152 -9.651094 34.836475 11.197903 85.130799 -55.727382 94.938694 88.966774 -19.004758 67.15628 -155.564948 60.178469 132.010363 76.384581 -49.200599 28.871179 -49.618334 27.915775 12.667172 -157.329708 -28.217401 122.489085 1.778998 19.796624 -5.329972 -160.674191 -6.667861 143.244481 -163.779909 -6.246307 143.112051 -145.120043 0.267582 -179.212798 11.19098 13.761254 -7.37577 -162.365486 72.064434 -150.898574 -155.925639 36.058048 -146.542524 155.44612 -3.134745 -161.756959 52.090907 -18.472336 -33.312946 -14.385792 17.371527 140.744291 140.672176 35.967841 -122.74454 -90.436687 -50.940052 -38.66582 15.942439 -43.172104 30.077477 -12.21598 -21.784847 5.120624 -88.075773 -60.572157 -34.457088 -68.984022 -80.153973 -40.577984 162.357491 -1.393708 -142.774323 -0.005607 1.770343 -0.556869 -7.303553 26.539507 -4.020871 162.371182 72.064245 150.894697 158.498479 44.358544 147.343101 -0.003493 -0.0002 -0.001747 -50.486549 -53.213245 48.268687 75.796586 -5.278612 86.306139 138.884062 28.244941 -173.504101 0.0 -0.0002 0.00097 15.751333 -4.203455 75.43259 58.891388 9.917474 4.405857 -137.516709 26.587182 18.269855
22.319 69.5741 60.4681 178.388025 -54.204906 -177.868961 -4.229059 22.165242 -13.043288 2.703443 -10.509033 22.575286 3.375125 12.219111 30.19692 -16.619904 -17.95034 -8.94061 0.001586 0.0 0.003709 0.001586 0.0 0.003709 -80.16631 68.371857 83.260775 -67.154005 63.920315 59.307527 -106.17744 20.756801 -122.013384 16.534579 -62.366829 4.089688 -78.0303 38.6893 42.41294 -5.304492 -11.360364 26.815775 -19.170324 24.114506 13.381208 -168.113527 -18.945016 110.278433 23.901073 -61.334339 1.39599 -25.471181 49.132598 20.812631 -145.118913 0.268156 -179.211638 10.197658 -0.130538 -9.014753 -11.663231 -23.130521 -11.0711 3.682425 2.1012 0.544469 151.97269 14.764252 -157.371724 -20.189273 -65.530522 -73.495801 -111.63066 82.918811 -104.400778 158.2488 22.962901 -134.602845 -178.850684 -18.544374 -89.079548 136.162274 14.741026 -70.47816 22.045871 26.608428 -15.680207 75.271424 49.077266 -55.80612 0.338615 0.982078 -0.189668 2.135086 14.742958 -2.646282 74.390356 -72.134369 91.483459 -14.723904 0.474506 4.56461 43.362644 -47.548554 42.159299 127.748667 -28.664248 126.731681 -0.000256 -0.000993 0.000329 -38.314967 -54.352619 -0.0 57.226914 60.505063 140.44702 178.810384 36.457559 -134.932293 -179.988877 75.750014 -0.007611 -145.022861 53.896487 47.982686 64.590262 6.919581 90.240715 -21.057342 24.536624 -150.15599
26.9872 71.2719 57.621 178.652347 -78.584684 -173.732329 -0.255784 20.484128 -73.244875 8.171473 -5.776615 83.097188 -7.332752 17.977122 -44.837804 28.179105 -14.801298 81.147594 0.000891 -0.0 -0.002146 0.000891 -0.0 -0.002146 2.457685 -18.201557 -3.667356 163.497827 -75.062213 119.029845 -104.87882 82.498467 -139.266732 -8.476809 -25.329252 -6.376406 -166.632014 -4.304486 89.771971 110.743767 -60.463068 80.304886 -90.225601 41.072583 75.79672 -82.352998 52.950344 59.742542 -161.51901 -9.304329 143.625038 -170.387913 -26.012564 143.878442 0.000266 -0.060856 -0.019061 8.120059 22.052626 3.179874 -148.607929 23.707898 -144.778217 -136.996251 -14.249328 -133.218989 159.212326 -46.72873 -170.136268 87.979916 -31.872372 80.435797 -179.788287 -53.078759 64.234577 10.056733 -2.704875 2.984753 -4.005471 -3.98767 0.478984 -0.184559 -1.540002 2.918922 108.427351 34.161038 -91.743102 10.768296 26.261136 -1.223146 160.393257 -5.805317 -143.113894 167.435621 -17.359517 -143.829825 145.098041 -1.604897 178.623429 -12.056572 29.596009 5.639928 154.810001 47.640805 149.290515 -6.116693 12.203761 -1.493576 179.994331 75.749454 0.005849 167.090559 18.306887 -143.881719 -34.368891 -70.354845 42.661375 141.425291 37.917752 -56.379163 -0.0 0.000605 0.000591 29.99146 -40.062158 -0.0 -11.850635 68.164707 155.989171 -71.555206 -27.643052 -170.447016
